<svg width="207" height="198" viewBox="0 0 207 198" fill="none" xmlns="http://www.w3.org/2000/svg">
<path d="M163 20C163 31.0457 154.842 40 143.513 40C132.184 40 123 31.0457 123 20C123 8.9543 132.184 0 143.513 0C154.842 0 163 8.9543 163 20Z" fill="black"/>
<circle cx="72" cy="20" r="20" fill="black"/>
<path d="M206.595 142.226C206.595 173.706 154.995 194.226 100.595 194.226C46.1949 194.226 -22.4049 120.226 7.0949 79.2261C27.2411 51.226 78.6949 70.4138 133.095 70.4138C192.095 70.4138 206.595 110.746 206.595 142.226Z" fill="black"/>
<path d="M119.544 174.829C117.102 202.221 69.9454 184.345 58.5795 178.332C47.2135 172.319 17.0362 150 23.6982 136C32.4998 117.504 64.6771 110.707 85.1158 117.504C105.555 124.3 119.516 154.717 119.544 174.829Z" fill="#ED646E"/>
</svg>
